<svg xmlns="http://www.w3.org/2000/svg" viewBox="0 0 150 150"><defs><style>.cls-1{fill:none;}.cls-2{fill:#fcfcfc;}</style></defs><g id="Layer_2" data-name="Layer 2"><rect class="cls-1" width="150" height="150"/></g><g id="Layer_1" data-name="Layer 1"><path class="cls-2" d="M140.24,108.88l0,0h0l-.06-.09h0l-.61-.84-.08-.14c-3.37-5.8-20.1-21.52-34.68-30.06l28.41-18.24H114.6L94.63,73,92.35,74.5l-3.87,2.61,0,.08c-.75.57-3.28,2.24-4.42,3.15l3.46-10.51C88.45,67.52,89,65,88.83,64c-.41-2.12-.14-3.91-3.7-4.38v0h-.31a22.75,22.75,0,0,0-3.47,0v0H69.54a.46.46,0,0,1,.07-.07H8c3.53,1.93,5.44,7.24,24.31,8.2L22.51,96.73H40.42v-.54L50.5,67.63c6.47-.47,13-2,17.82-6.79a5.85,5.85,0,0,1,1.29,1.24h0a5.27,5.27,0,0,1,1,2.66,5.05,5.05,0,0,1-.1,1.48L63.69,87h-.2l-3.28,9.75H78.7L81.91,87l2-6a65.06,65.06,0,0,1,9.55,3.41l.07.1.06,0c12.58,5.37,30.61,15.23,43.81,22.74l2.68,1.63h.19Z"/></g></svg>